Coordinates
version=1
nRows=21
nColumns=22
inDegrees=yes

Units are S.I. units (second, meters, Newtons, ...)
If the header above contains a line with 'inDegrees', this indicates whether rotational values are in degrees (yes) or radians (no).

endheader
time	pelvis_tilt	pelvis_list	pelvis_rotation	pelvis_tx	pelvis_ty	pelvis_tz	hip_flexion_r	hip_adduction_r	hip_rotation_r	knee_angle_r	ankle_angle_r	subtalar_angle_r	hip_flexion_l	hip_adduction_l	hip_rotation_l	knee_angle_l	ankle_angle_l	subtalar_angle_l	lumbar_extension	lumbar_bending	lumbar_rotation
      0.01000000	      3.82870037	     -3.45621175	      5.21989379	      0.15107935	      0.95337661	      1.16238740	     -2.51963174	      4.75167211	    -13.17094188	     -8.05486602	      7.25807965	      0.75504655	      0.58082679	     -3.91641631	    -12.19431660	    -15.44073919	     19.48074235	    -10.46696169	    -12.12557239	      3.98976542	     -9.84614973
      0.02000000	      3.84219857	     -3.46958485	      5.19943237	      0.15112131	      0.95339510	      1.16240857	     -2.53743811	      4.76707456	    -13.15530181	     -8.04940418	      7.26238784	      0.75290499	      0.56063997	     -3.93088731	    -12.20628112	    -15.44025437	     19.46555900	    -10.48051314	    -12.13398402	      4.01948466	     -9.89364388
      0.03000000	      3.85071758	     -3.47739238	      5.16650854	      0.15118488	      0.95340165	      1.16244523	     -2.54871066	      4.77459208	    -13.13781711	     -8.04899225	      7.26072688	      0.74989409	      0.54427758	     -3.93880723	    -12.22857233	    -15.44534725	     19.47340297	    -10.49118076	    -12.13313208	      4.04144961	     -9.93146482
      0.04000000	      3.85662110	     -3.48739910	      5.12310056	      0.15126083	      0.95340231	      1.16249335	     -2.55382169	      4.78247927	    -13.11274008	     -8.05548459	      7.25995880	      0.74674040	      0.52915635	     -3.94852952	    -12.26000894	    -15.45140965	     19.48868403	    -10.50095616	    -12.12658930	      4.06826569	     -9.97440206
      0.05000000	      3.86522434	     -3.51108617	      5.05804334	      0.15136981	      0.95339322	      1.16258670	     -2.57082095	      4.80940841	    -13.03085752	     -8.04448356	      7.26082028	      0.73588473	      0.52299152	     -3.98261952	    -12.35214911	    -15.49331554	     19.54828954	    -10.52924150	    -12.11655816	      4.10806415	     -9.98796613
      0.06000000	      3.86784261	     -3.52203084	      5.00309306	      0.15148065	      0.95338486	      1.16263760	     -2.56870754	      4.81544469	    -13.00225301	     -8.06246173	      7.25943432	      0.73304325	      0.50468349	     -3.98984655	    -12.38114674	    -15.49313432	     19.56155967	    -10.53490321	    -12.09998266	      4.14090089	    -10.04229054
      0.07000000	      3.87075207	     -3.54888439	      4.91782800	      0.15161850	      0.95336133	      1.16275532	     -2.57972358	      4.84400885	    -12.89405826	     -8.05339996	      7.26834117	      0.72410806	      0.50302473	     -4.02735798	    -12.49488349	    -15.54128249	     19.63022814	    -10.55622430	    -12.07922296	      4.18548830	    -10.05191768
      0.08000000	      3.87371634	     -3.56194652	      4.85105968	      0.15175674	      0.95335020	      1.16281743	     -2.57821984	      4.85131540	    -12.85854639	     -8.07332202	      7.26766432	      0.72176847	      0.48162546	     -4.03616082	    -12.53120563	    -15.54320223	     19.64583902	    -10.56097383	    -12.05984222	      4.22363243	    -10.11085916
      0.09000000	      3.87687875	     -3.59251889	      4.74505603	      0.15191680	      0.95332432	      1.16296518	     -2.59169234	      4.88374271	    -12.72488612	     -8.06105702	      7.27805883	      0.71548479	      0.47892686	     -4.07938743	    -12.66965471	    -15.60067499	     19.72198789	    -10.57872216	    -12.03865354	      4.27190609	    -10.10368761
      0.10000000	      3.87934671	     -3.60707462	      4.66681512	      0.15206416	      0.95331258	      1.16304219	     -2.58980532	      4.89167109	    -12.68365696	     -8.08171482	      7.27617857	      0.71351778	      0.45701409	     -4.08968435	    -12.71128892	    -15.60515005	     19.73815704	    -10.58290196	    -12.01972361	      4.31307932	    -10.16254663
      0.11000000	      3.88004929	     -3.64050224	      4.54315912	      0.15222245	      0.95328388	      1.16322142	     -2.59970063	      4.92639485	    -12.53311735	     -8.06972932	      7.28101837	      0.70855085	      0.45766585	     -4.13789461	    -12.86837629	    -15.67031248	     19.81337529	    -10.59861035	    -11.99921712	      4.36287646	    -10.13921974
      0.12000000	      3.87748715	     -3.66681536	      4.43358706	      0.15236591	      0.95325965	      1.16336435	     -2.59775545	      4.94935412	    -12.43167967	     -8.07533727	      7.27117537	      0.70266425	      0.45221443	     -4.16974438	    -12.97102269	    -15.70788629	     19.85644603	    -10.60494507	    -11.97829211	      4.40993117	    -10.15039848
      0.13000000	      3.87528965	     -3.69200608	      4.32417518	      0.15249556	      0.95323691	      1.16351118	     -2.59500266	      4.97126468	    -12.33844271	     -8.08221928	      7.26762272	      0.69780644	      0.44921376	     -4.20112294	    -13.07111054	    -15.74954347	     19.89651369	    -10.61128155	    -11.96178746	      4.45625381	    -10.16610495
      0.14000000	      3.87607055	     -3.70648757	      4.23556141	      0.15260578	      0.95322696	      1.16361154	     -2.58856972	      4.97833123	    -12.30042656	     -8.10364796	      7.26400833	      0.69596644	      0.43357015	     -4.21223447	    -13.10907897	    -15.76186295	     19.90893143	    -10.61464977	    -11.95298541	      4.49697076	    -10.22279035
      0.15000000	      3.86941452	     -3.74272726	      4.10274607	      0.15270930	      0.95319163	      1.16382123	     -2.58314615	      5.01485740	    -12.16324455	     -8.09961292	      7.25674609	      0.68898575	      0.45030505	     -4.26570095	    -13.26900050	    -15.83867325	     19.97186688	    -10.62924496	    -11.93835065	      4.54590870	    -10.19746106
      0.16000000	      3.86011111	     -3.76863363	      3.99215820	      0.15278796	      0.95316237	      1.16398356	     -2.56784588	      5.03728497	    -12.07745279	     -8.10899167	      7.24092725	      0.67986352	      0.45917007	     -4.29798537	    -13.35828158	    -15.88117687	     20.00866878	    -10.63291116	    -11.92502316	      4.59000717	    -10.21618881
      0.17000000	      3.85234234	     -3.79307099	      3.88487845	      0.15285221	      0.95313321	      1.16413714	     -2.55330140	      5.05732362	    -12.00102979	     -8.11935172	      7.23303693	      0.67055821	      0.46933393	     -4.32921003	    -13.44958959	    -15.92700858	     20.04187901	    -10.63817859	    -11.91811527	      4.63393101	    -10.23936865
      0.18000000	      3.84370935	     -3.81653280	      3.77687100	      0.15290958	      0.95310430	      1.16430263	     -2.53690062	      5.07732325	    -11.92513379	     -8.13050712	      7.22440569	      0.66031573	      0.47925474	     -4.35962773	    -13.53775575	    -15.96981159	     20.07544174	    -10.64337320	    -11.91141815	      4.67384717	    -10.26370844
      0.19000000	      3.83365058	     -3.83939959	      3.66794448	      0.15295965	      0.95307441	      1.16447475	     -2.51883510	      5.09682318	    -11.84887290	     -8.14099889	      7.21704413	      0.64894290	      0.49035940	     -4.39007417	    -13.62798330	    -16.01135827	     20.10800294	    -10.64855710	    -11.90654651	      4.71149150	    -10.28845922
      0.20000000	      3.82248508	     -3.86016580	      3.55954887	      0.15300695	      0.95304314	      1.16464196	     -2.49916179	      5.11367893	    -11.77418328	     -8.15247967	      7.21091200	      0.63709025	      0.49970643	     -4.41681890	    -13.71496725	    -16.04695995	     20.13833772	    -10.65251114	    -11.90249976	      4.74858962	    -10.31641332
      0.21000000	      3.81041197	     -3.87932293	      3.45028643	      0.15305266	      0.95301225	      1.16482200	     -2.47824792	      5.12938611	    -11.69915915	     -8.16422181	      7.20664808	      0.62538330	      0.50772050	     -4.44289838	    -13.80314282	    -16.07838880	     20.16640535	    -10.65592077	    -11.89898103	      4.78227720	    -10.34613858
